<?xml version="1.0" encoding="UTF-8"?>
<svg id="Layer_2" data-name="Layer 2" xmlns="http://www.w3.org/2000/svg" viewBox="0 0 118.2 96.93">
  <defs>
    <style>
      .cls-1 {
        fill: #FFF;
      }
    </style>
  </defs>
  <g id="Price">
    <g>
      <path class="cls-1" d="M59.1,0C35.31,0,15.53,17.13,11.42,39.73c.43-.06.87-.1,1.33-.1.12,0,.24,0,.35,0,.1,0,.2,0,.31,0,.27,0,.54.01.8.04C18.33,17.83,37.5,1.32,60.54,1.32c19.1,0,35.54,11.35,42.95,27.68C96,11.92,78.94,0,59.1,0ZM60.54,95.62c-23.04,0-42.21-16.52-46.33-38.36-.26.02-.53.04-.81.04-.11,0-.22,0-.33,0-.11,0-.22,0-.33,0-.45,0-.9-.03-1.33-.1,4.11,22.6,23.9,39.73,47.68,39.73,19.86,0,36.94-11.95,44.42-29.05-7.4,16.35-23.86,27.73-42.98,27.73Z"/>
      <g>
        <path class="cls-1" d="M26.81,48.52c0,7.61-5.9,13.46-13.4,13.46S0,56.13,0,48.52s5.85-13.56,13.41-13.56,13.4,5.9,13.4,13.56ZM4.79,48.52c0,4.95,3.72,8.78,8.62,8.78s8.62-3.83,8.62-8.78-3.78-8.88-8.62-8.88-8.62,3.83-8.62,8.88Z"/>
        <path class="cls-1" d="M61.71,53.47h3.93c.18,0,.34.13.37.3.46,2.38,2.8,3.95,5.96,3.95s5.32-1.49,5.32-3.67c0-6.44-15.43-1.54-15.43-11.44,0-4.42,3.72-7.66,9.52-7.66,5,0,9.36,2.65,10.2,7.37.04.23-.14.45-.37.45h-4.2c-.17,0-.33-.12-.37-.29-.46-1.93-2.53-3.38-5.37-3.38s-4.63,1.22-4.63,3.14c0,6.17,15.43.96,15.43,11.7,0,4.63-4.26,8.03-9.89,8.03s-10.13-3.07-10.85-8.08c-.03-.23.14-.43.38-.43Z"/>
        <path class="cls-1" d="M92.4,35.87v25.2c0,.21-.17.38-.38.38h-4.19c-.21,0-.38-.17-.38-.38v-25.2c0-.21.17-.38.38-.38h4.19c.21,0,.38.17.38.38Z"/>
        <path class="cls-1" d="M97.83,53.47h3.93c.18,0,.34.13.37.3.46,2.38,2.8,3.95,5.96,3.95s5.32-1.49,5.32-3.67c0-6.44-15.43-1.54-15.43-11.44,0-4.42,3.72-7.66,9.52-7.66,5,0,9.36,2.65,10.2,7.37.04.23-.14.45-.37.45h-4.2c-.17,0-.33-.12-.37-.29-.46-1.93-2.53-3.38-5.37-3.38s-4.63,1.22-4.63,3.14c0,6.17,15.43.96,15.43,11.7,0,4.63-4.26,8.03-9.89,8.03s-10.13-3.07-10.85-8.08c-.03-.23.14-.43.38-.43Z"/>
        <path class="cls-1" d="M51.34,35.87v.78c0,.3-.33.48-.58.32-2.06-1.28-4.5-2.02-7.14-2.02-7.55,0-13.4,5.91-13.4,13.57s5.85,13.46,13.4,13.46c2.64,0,5.08-.72,7.14-2,.25-.16.58.02.58.32v.77c0,.21.17.38.38.38h4.19c.21,0,.38-.17.38-.38v-25.2c0-.21-.17-.38-.38-.38h-4.19c-.21,0-.38.17-.38.38ZM51.34,52.5c-1.4,2.88-4.29,4.8-7.72,4.8-4.89,0-8.62-3.83-8.62-8.78s3.72-8.88,8.62-8.88c3.43,0,6.32,1.92,7.72,4.84.58,1.2.9,2.57.9,4.05s-.32,2.79-.9,3.98Z"/>
      </g>
    </g>
  </g>
</svg>
